<?xml version="1.0" encoding="UTF-8"?><svg id="Capa_1" xmlns="http://www.w3.org/2000/svg" viewBox="0 0 283.47 283.5"><defs><style>.cls-1{fill:#fff;stroke-width:0px;}</style></defs><path class="cls-1" d="M171.65,0c2.72.81,5.5,1.45,8.13,2.48,5.45,2.11,9.98,5.56,13.54,10.19.95,1.24,1.74,1.6,3.4,1.29,17.77-3.41,33.52,6.14,38.83,23.5.43,1.41,1.02,2.08,2.52,2.38,17.77,3.54,28.86,18.62,27,36.74-.14,1.4.14,2.1,1.31,2.89,15.51,10.57,19.72,28.48,10.63,44.97-.18.32-.32.66-.52,1.09,4.38,5.91,6.95,12.54,6.98,19.98.04,10.71-4.12,19.54-12.42,26.31-1.39,1.13-1.81,2.04-1.46,3.88,3.33,17.57-6.42,33.44-23.51,38.68-.95.29-2.11,1.5-2.3,2.45-1.6,8.02-5.54,14.61-11.8,19.79-1.86,1.53-2.44,2.75-1.42,5.29,3.7,9.13,3.81,18.47-.62,27.36-6.86,13.76-23.67,18.26-37.5,10.31-13.75-7.9-27.46-15.85-41.19-23.78-44.22-25.54-88.38-51.19-132.73-76.52-9.07-5.21-16.25-11.38-18.52-22v-7.2c1.08-2.92,1.77-6.06,3.31-8.72,5.5-9.48,14.06-14.57,24.75-16.22,1.53-.24,2.6-.39,3.3-2.19,6.67-16.97,23.12-25,40.89-20.22.84.23,2.22-.06,2.81-.64,13.66-13.41,30.87-14.6,45.98-3.12.57.43,1.54.85,2.13.66,2.32-.76,4.55-1.77,6.95-2.74-2.16-4.64-4.26-9.14-6.35-13.64-7.02-15.12-14.29-30.14-20.98-45.4-5.39-12.29-.67-26.04,10.82-32.23,10.28-5.55,20.74-4.65,31.08.23.89.42,2.35.94,2.9.54,4.75-3.46,10.16-5.13,15.75-6.39h8.31ZM226.2,167.51c.99-2.27,1.81-4.02,2.51-5.81,5.31-13.58,7.19-27.58,5.09-42.07-.57-3.94,1.31-6.82,4.62-7.22,3.27-.4,5.8,1.65,6.3,5.15,2.7,18.98-.13,37.14-8.48,54.37-2.32,4.79-5.54,9.14-8.04,13.85-.89,1.69-1.89,4.85-1.11,5.63,4.21,4.27,7.48,9.03,9.55,14.55,1.74-.7,3.22-1.46,4.79-1.9,13.62-3.83,20.01-14.34,16.92-28.02-1.06-4.71.23-8.52,4.05-11.5,11.37-8.86,13.2-20.72,5.01-32.52-2.75-3.97-2.95-7.97-.56-12.19,7.11-12.58,4.23-24.08-7.91-31.94-4.13-2.68-5.86-6.43-5.08-11.35,2.06-12.95-5.88-23.98-18.84-26.02-5.39-.85-8.49-3.75-9.86-9.02-3.31-12.73-14.48-19.44-27.35-16.44-5.19,1.21-9.17-.21-12.38-4.43-8.14-10.7-20.77-12.63-31.71-4.82-4.22,3.02-8.47,3.4-12.88.65-5.03-3.13-10.49-3.87-16.22-3.14-9.06,1.15-14.86,9.63-12.23,18.35,1.29,4.27,3.44,8.27,5.25,12.5,1.04-.35,1.72-.57,2.41-.8,28.82-10.04,56.24-6.96,82.24,8.89,7.37,4.49,13.84,10.13,19.6,16.55,2.49,2.78,2.53,6.19.14,8.37-2.43,2.22-5.61,1.88-8.3-.9-.32-.33-.62-.68-.94-1.01-21.49-21.98-47.34-30.38-77.59-24.73-4.27.8-8.4,2.34-12.79,3.59,6.54,14.02,12.78,27.47,19.13,40.87.39.81,1.54,1.59,2.46,1.77,10.45,2.05,18.18,7.77,23.24,17.07.81,1.49,1.76,1.58,3.25,1.77,4.53.58,9.31.81,13.47,2.47,11.92,4.78,18.62,13.97,20.5,26.7.16,1.1.75,2.74,1.56,3.05,9.38,3.6,16.02,9.98,20.18,19.68h0ZM180.05,259.61c19.43-38,5.56-90.4-39.52-111.12-42.12-19.36-86.1,1.42-102.35,29.2,47.23,27.27,94.45,54.54,141.88,81.92h0ZM189.94,265.35c3.38,1.91,6.5,3.89,9.81,5.5,8.87,4.32,19.21-.38,21.53-9.73,1.38-5.53,1.2-11.02-1.45-16.18-2.59-5.06-1.88-9.44,1.8-13.74,8.34-9.76,7.4-22.8-2.2-31.4-4.11-3.68-5.31-7.84-3.57-13.15,4.05-12.36-1.81-24.06-14.09-28.37-4.96-1.74-7.89-4.91-8.14-10.3-.03-.64-.15-1.28-.23-1.92-1.54-11.86-11.33-20.11-23.28-19.35-5.74.36-9.68-1.77-12.3-6.95-5.71-11.3-18.27-15.61-29.59-10.1-5.2,2.53-9.61,1.99-13.99-1.79-9.45-8.16-22.71-7.37-31,1.92-4.01,4.49-8.38,5.65-14.1,3.75-11.46-3.8-23.62,2.16-27.49,13.54-1.95,5.72-5.48,8.67-11.47,9.02-5.91.35-10.75,3.12-14.81,7.26-6.12,6.23-5.8,15.83,1,21.27,3.54,2.84,7.7,4.91,11.56,7.31,28.12-42.8,84.52-53.14,125.33-29.43,39.38,22.87,59.91,75.52,36.66,122.85h.02Z"/><path class="cls-1" d="M237.47,93.96c0,2.93-2.5,5.5-5.44,5.56-3.05.06-5.64-2.55-5.58-5.65.06-3.05,2.45-5.36,5.53-5.34,3.04.02,5.48,2.43,5.49,5.43Z"/><path class="cls-1" d="M105.92,155.75c12.13.18,23.08,2.95,33.25,8.67,3.33,1.87,4.46,4.89,2.93,7.82-1.51,2.89-4.78,3.74-8.12,1.94-17.26-9.26-34.75-9.77-52.53-1.57-3.51,1.62-6.63.71-8.07-2.22-1.49-3.04-.14-6.07,3.43-7.81,9.34-4.57,19.25-6.7,29.11-6.83Z"/></svg>