<?xml version="1.0" encoding="UTF-8"?><svg id="Capa_1" xmlns="http://www.w3.org/2000/svg" viewBox="0 0 283.44 298.17"><defs><style>.cls-1{fill:#fff;stroke-width:0px;}</style></defs><path class="cls-1" d="M146.95,0c5.58.59,11.17,1.05,16.74,1.78,29.8,3.87,58,12.22,82.93,29.69,1.83,1.28,3.59,2.66,5.34,4.04,2.91,2.3,3.53,4.72,1.83,6.93-1.73,2.25-4.24,2.29-7.14,0-11.8-9.41-24.99-16.32-39.14-21.35-28.45-10.13-57.76-14.04-87.87-11.64-3.95.32-7.91.93-11.79,1.73-12.02,2.48-21.29,14.18-20.17,25.25,58.59-11.82,109.57,1.96,152.08,45.09,6.32-9.94,15.67-14.88,28.16-15.46-2.18-3.04-4.09-5.75-6.05-8.42-.8-1.09-1.77-2.07-2.55-3.18-1.49-2.13-1.21-4.46.63-5.99,1.81-1.51,4.3-1.43,6.01.48,2,2.24,4.03,4.52,5.58,7.07,3.57,5.87,7.03,11.81,10.2,17.9,3.07,5.91,1.82,11.5-2.37,16.47-4.37,5.18-9.94,8.82-16.28,10.85-48.3,15.51-90.87,41.82-132.45,70.01-.95.65-1.71,2.31-1.72,3.51-.12,13.3-.03,26.59-.09,39.89-.05,9.84-5.78,16.64-14.85,17.88-10.37,1.41-19.11-5.86-19.43-16.36-.18-6.09-.03-12.2-.03-18.78-.99.57-1.66.85-2.21,1.27-10.21,7.89-20.44,15.76-30.57,23.75-.89.7-1.57,2.2-1.6,3.35-.16,5.82-.06,11.65-.08,17.47-.05,14.11-11.14,21.92-24.47,17.25-.26-.09-.56-.04-1.15-.08,0,5.18.03,10.29,0,15.41-.02,2.52,0,5.06-.34,7.55-1.28,9.27-8.5,15.21-17.81,14.8-8.99-.4-15.99-7.13-16.08-16.35-.2-21.45-.39-42.91.19-64.34.17-6.43,2.74-12.83,4.49-19.17,9.36-33.95,20.21-67.38,35.46-99.22,8.91-18.61,19.05-36.49,32.82-51.98,3.7-4.16,5.7-8.08,5.87-13.9.44-15.05,12.87-28.13,28.28-30.81,5.78-1.01,11.66-1.6,17.51-2.38h22.13ZM45.05,110.49c-.23.48-.71,1.41-1.15,2.37-11.15,24.47-19.65,49.89-27.54,75.57-5.46,17.78-8.93,35.67-7.65,54.32.07.97,0,1.94,0,2.91.03,11.65,0,23.29.1,34.94.05,5.79,4.53,9.7,9.81,8.8,4.26-.72,7.02-4.31,7.04-9.36.04-12.71.01-25.43.01-38.14,0-.87-.03-1.75.04-2.62.21-2.48,1.56-3.95,4.06-4.08,2.53-.14,4.06,1.25,4.47,3.66.26,1.51.08,3.1.17,4.64.08,1.35.07,2.75.47,4.01,1.19,3.87,5.17,6.32,9.04,5.75,4.24-.63,7.26-4.1,7.34-8.81.11-6.6.1-13.2,0-19.8-.05-3.59,1.28-6.35,4.1-8.53,10.76-8.29,21.5-16.6,32.22-24.94,3.18-2.47,6.55-3.28,10.29-1.41,3.8,1.9,5.36,5.09,5.32,9.25-.05,5.53-.06,11.06.02,16.59.06,3.84,2.26,6.81,5.67,7.99,5.77,1.99,11.14-2.22,11.17-8.86.05-13.68.07-27.37-.02-41.05-.03-4.07,1.47-7.07,4.87-9.29,5.2-3.39,10.29-6.95,15.48-10.35,27.66-18.17,56.05-35.05,86.4-48.43,5.11-2.25,10.31-4.31,15.54-6.49-.19-.42-.25-.71-.42-.9-3.03-3.41-5.95-6.92-9.12-10.19-17.44-18.03-37.28-32.54-61.41-40.25-27.8-8.88-55.94-8.71-84.11-1.79-2.04.5-3.68,2.59-5.49,3.92,4.39,2.2,8.4,3.77,11.95,6.06,20.03,12.95,20.8,39.35,1.53,52.93-10.51,7.41-22.32,9.86-34.87,7.1-5.2-1.15-10.12-3.6-15.36-5.53h.03ZM49.33,101.49c11,9.56,31.54,8.91,43.02-1.25,6.8-6.02,9.57-13.54,7.44-22.5-2.26-9.5-11.25-17.16-22.97-19.3-.69-.13-1.83.51-2.3,1.14-9.83,13.06-17.88,27.18-25.19,41.92h0ZM266.07,74.88c-7.44.63-13.88,3.75-18.17,10.42-2.66,4.14-.93,7.64,3.91,8.49,1.04.18,2.13.29,3.18.21,6.55-.5,12.19-3,16.53-8.02,1.92-2.21,3.91-4.67,2.46-7.81-1.45-3.15-4.66-3.02-7.92-3.3h.01Z"/><path class="cls-1" d="M101.33,157.06c-3.4-6.23-8.56-10.19-14.95-12.49-9.94-3.58-19.91-3.44-29.28,1.61-3.64,1.96-6.76,5.11-9.68,8.13-2.61,2.71-4.59,3.67-6.89,2.08-2.38-1.65-2.48-4.23-.17-7.36,6.2-8.42,14.75-13.05,24.87-14.74,13.7-2.29,26.28.34,36.89,9.75,2.58,2.28,4.58,5.21,7.03,8.06,2.71-1.81,5.58-3.77,8.48-5.67,2.85-1.87,5.37-1.59,6.87.68,1.5,2.28.8,4.69-2.07,6.6-27.51,18.29-53.28,38.82-78.18,60.48-.44.38-.88.77-1.36,1.09-2.11,1.39-4.53,1.1-6.03-.69-1.52-1.82-1.42-4.2.56-5.99,3.95-3.58,8.03-7.03,12.05-10.54.72-.63,1.42-1.28,2.19-1.98-2.28-1.76-4.51-3.28-6.52-5.07-6.68-5.94-10.45-13.38-10.99-22.34-.24-4,2.78-6.82,5.79-5.19,1.33.72,2.66,2.7,2.78,4.21.81,9.98,6.15,16.69,14.7,21.17.77.4,2.31.3,3-.22,13.43-10.2,26.8-20.5,40.17-30.78.22-.17.39-.41.77-.81h-.03Z"/><path class="cls-1" d="M147.23,127.88c-1.59-1.66-3.03-3.08-4.38-4.58-9.27-10.22-10.94-23.96-3.88-35.78,7.86-13.17,20.02-19.06,35.07-18.95,14.94.11,27.11,5.85,35.21,18.88,1.16,1.87,1.93,3.98,3,6.22,1.67-.72,3.32-1.46,4.99-2.14,2.93-1.19,5.36-.41,6.39,1.99,1.05,2.47.04,4.66-2.93,6.04-9.66,4.5-19.57,8.5-28.93,13.55-16.11,8.68-31.88,18.01-47.79,27.06-.67.38-1.31.84-1.99,1.2-2.45,1.29-4.8.76-6.12-1.34-1.3-2.08-.76-4.53,1.55-6.05,3.16-2.07,6.41-3.99,9.82-6.1h-.01ZM203.86,97.2c-1.59-5.66-4.69-10-9.16-13.36-11.45-8.63-29.98-8.61-41.47.02-13.07,9.81-12.91,27.79.26,37.45,1.5,1.1,2.58,1.06,4.14.18,6.92-3.91,13.85-7.8,20.89-11.48,8.32-4.35,16.75-8.47,25.34-12.8h0Z"/><path class="cls-1" d="M60.93,170.95c-.06,2.42-2.15,4.4-4.51,4.27-2.27-.13-4.09-2.12-4.05-4.44.04-2.34,1.92-4.21,4.23-4.22,2.5,0,4.39,1.91,4.33,4.4h0Z"/><path class="cls-1" d="M80.73,95.14c.04,2.47-1.89,4.44-4.34,4.43-2.3-.01-4.18-1.89-4.24-4.24-.06-2.41,1.98-4.5,4.34-4.45,2.29.05,4.21,1.97,4.24,4.26Z"/><path class="cls-1" d="M78.02,68.55c2.46.03,4.4,2.05,4.29,4.46-.11,2.36-1.98,4.13-4.35,4.12-2.4,0-4.42-2.09-4.32-4.47.09-2.27,2.09-4.14,4.38-4.11Z"/><path class="cls-1" d="M190.56,99.56c-2.39.06-4.46-1.99-4.44-4.38.02-2.26,2.01-4.27,4.25-4.29,2.27-.03,4.29,1.86,4.39,4.11.11,2.48-1.75,4.51-4.2,4.56Z"/><path class="cls-1" d="M172.65,90.2c-.02,2.51-1.93,4.32-4.46,4.24-2.34-.08-4.19-1.98-4.17-4.29,0-2.24,2.01-4.28,4.22-4.33,2.41-.05,4.43,1.96,4.41,4.38Z"/></svg>