<?xml version="1.0" encoding="UTF-8"?><svg id="Capa_1" xmlns="http://www.w3.org/2000/svg" viewBox="0 0 283.47 283.41"><defs><style>.cls-1{fill:#fff;stroke-width:0px;}</style></defs><path class="cls-1" d="M283.46,149.99c-.73,5.46-1.2,10.96-2.23,16.36-8.62,44.87-33.04,78.41-73.01,100.39-22.47,12.36-46.85,17.99-72.42,16.41-53.19-3.28-93.06-28.52-119.08-74.98C4.19,185.8-1.31,161.34.26,135.78,3.55,82.49,28.88,42.64,75.46,16.56,92.73,6.89,111.53,1.8,131.31.45c.72-.05,1.43-.3,2.14-.45h16.61c.8.16,1.6.42,2.41.48,14.44,1.01,28.49,4,41.78,9.7,47.8,20.5,77.03,56.23,87.03,107.4,1.02,5.21,1.47,10.54,2.19,15.81v16.6h-.01ZM274.03,141.71c.08-72.82-59.13-132.11-132.1-132.28C69,9.26,9.53,68.63,9.47,141.64c-.05,72.86,59.13,132.15,132.07,132.31,72.86.16,132.41-59.28,132.49-132.24h0Z"/><path class="cls-1" d="M162.62,184.14c.79-18.15,1.3-30.68,1.92-43.2.09-1.8-.46-2.76-1.97-3.76-6.18-4.1-9.67-9.95-10.73-17.29-1.22-8.44-.47-16.72,1.96-24.87.79-2.65,1.58-5.29,2.38-7.94,2.83-9.34,10.31-15.61,19.27-16.17,9.74-.61,18.11,4.36,21.77,13.75,3.45,8.85,6.02,17.98,5.92,27.66-.11,10.49-2.71,19.7-12.32,25.63-.61.38-.93,1.72-.89,2.59.6,15.02,1.28,30.03,1.95,45.05.44,9.95,1.02,19.89,1.29,29.85.21,8.05-5.01,14.09-13.13,15.71-7.21,1.44-15.07-2.68-17.67-9.69-.9-2.42-1.14-5.23-1.05-7.84.4-11.7,1.03-23.4,1.32-29.48h-.02ZM172.42,175.72h.02c-.6,12.98-1.25,25.97-1.78,38.96-.19,4.52,2.39,7.2,6.55,7.17,4.17-.03,6.66-2.71,6.51-7.22-.17-5.25-.5-10.5-.74-15.75-.95-20.81-1.9-41.63-2.84-62.44-.11-2.43.84-4.25,3.13-5.36,1.48-.72,2.97-1.51,4.27-2.5,5.1-3.86,5.89-9.51,6.12-15.32.35-8.94-2.32-17.3-5.37-25.5-1.81-4.86-5.85-7.34-10.99-7.39-5.15-.05-9.29,2.35-11.13,7.18-3.18,8.35-5.8,16.9-5.49,26.04.27,7.78,2.54,14.31,10.44,17.55,2.48,1.02,3.21,3.1,3.09,5.63-.6,12.98-1.19,25.97-1.79,38.95h0Z"/><path class="cls-1" d="M92.36,175.74c.63-13.08,1.22-26.16,1.94-39.23.1-1.86-.45-3.1-1.75-4.34-3.4-3.25-6.84-6.49-9.93-10.02-1.22-1.39-2.18-3.54-2.2-5.36-.18-13.37-.09-26.74-.1-40.12,0-2.27.49-4.52,2.8-5.19,1.46-.43,3.74-.26,4.76.65,1.15,1.03,1.79,3.18,1.81,4.86.15,12.08.12,24.16.04,36.24-.01,1.99.47,3.44,1.96,4.83,3.44,3.21,6.66,6.64,10.03,9.92,1.71,1.67,2.35,3.61,2.22,5.98-1.39,26.61-2.75,53.22-4.1,79.84-.15,3.02.52,5.72,3.47,7.25,2.45,1.28,4.8.98,6.99-.65,2.16-1.61,2.61-3.94,2.48-6.41-1.33-26.61-2.67-53.23-4.06-79.84-.14-2.59.6-4.63,2.47-6.43,3.39-3.26,6.76-6.55,9.94-10.01.93-1.02,1.67-2.66,1.68-4.02.13-11.99.07-23.98.08-35.97,0-1.01-.06-2.05.14-3.03.46-2.24,1.95-3.59,4.2-3.77,2.26-.18,3.96.93,4.67,3.11.36,1.11.41,2.35.41,3.54.03,12.82-.04,25.64.06,38.46.02,2.8-.86,4.94-2.88,6.84-3.35,3.16-6.62,6.43-9.77,9.79-.77.82-1.34,2.23-1.29,3.34,1.2,25.61,2.42,51.21,3.8,76.81.7,13.04-10.32,21.9-21.87,17.36-6.6-2.6-10.36-9.01-9.95-16.88.66-12.52,1.3-25.05,1.95-37.57v.02Z"/><path class="cls-1" d="M236.23,143.9c.07,22.1-8.78,44.75-26.89,63.74-2.41,2.53-5.18,2.96-7.29,1.11-2.25-1.96-2.22-4.75.39-7.51,8.55-9.01,15.28-19.16,19.3-30.95,8.51-24.97,6.27-48.99-6.93-71.86-2.25-3.89-5.11-7.43-7.72-11.11-1.48-2.08-1.94-4.21-.28-6.36,1.95-2.53,5.33-2.37,7.6.39,5.65,6.87,10.36,14.34,13.9,22.51,4.96,11.46,7.61,23.44,7.92,40.05h0Z"/><path class="cls-1" d="M47.33,140.41c.24-19.3,6.14-37.32,17.52-53.55,1.91-2.73,4.52-3.43,6.88-1.9,2.32,1.5,2.86,4.33.97,7.05-6.05,8.71-10.82,18.06-13.23,28.39-6.73,28.86-.77,54.78,18.57,77.43,1.2,1.4,2.53,2.7,3.65,4.16,1.66,2.16,1.44,4.83-.39,6.48-1.98,1.78-4.71,1.81-6.68-.42-3.73-4.2-7.57-8.38-10.73-12.99-11.14-16.27-16.61-34.38-16.56-54.65Z"/><path class="cls-1" d="M142.18,46.71c7.09,1.02,14.19,1.94,21.26,3.11,3.07.51,4.6,2.94,4.03,5.56-.6,2.75-2.99,4.23-6.16,3.53-12.5-2.76-25.02-2.97-37.52-.25-3.76.82-7.43,2.09-11.13,3.18-3.48,1.03-5.97.15-6.91-2.51-1.02-2.87.37-5.17,3.89-6.44,10.49-3.79,21.33-5.59,32.55-6.19h0Z"/><path class="cls-1" d="M94.55,94.65c0-5.99-.03-11.98.01-17.97.02-3.63,1.71-5.7,4.55-5.79,2.9-.09,4.86,2.14,4.87,5.81.04,11.89.05,23.78,0,35.67-.02,3.57-1.86,5.6-4.75,5.59-2.94-.01-4.63-1.97-4.66-5.62-.05-5.9-.01-11.8-.01-17.69h-.01Z"/><path class="cls-1" d="M118.06,94.67c0,6.17.07,12.35-.03,18.52-.05,2.89-1.81,4.63-4.36,4.76-2.65.14-4.55-1.57-4.95-4.51-.11-.82-.07-1.65-.07-2.48v-27.92c0-2.58-.11-5.17.14-7.73.26-2.74,2.36-4.5,4.77-4.42,2.49.09,4.26,1.93,4.49,4.71.06.73.04,1.47.04,2.21v16.87h-.03Z"/><path class="cls-1" d="M141.8,226.76c3.21-.18,6.34-.39,9.47-.54,3.39-.16,5.52,1.42,5.76,4.19.24,2.72-1.63,5.01-4.96,5.12-6.9.22-13.81.23-20.7,0-3.29-.11-5.08-2.47-4.77-5.25.3-2.67,2.33-4.17,5.61-4.04,3.22.13,6.44.35,9.59.53h0Z"/></svg>