<?xml version="1.0" encoding="UTF-8"?><svg id="Capa_1" xmlns="http://www.w3.org/2000/svg" viewBox="0 0 283.46 354.57"><defs><style>.cls-1{fill:#fff;stroke-width:0px;}</style></defs><path class="cls-1" d="M39.24,354.57c-2.85-1.82-3.77-4.55-4.27-7.79-6.53-41.71-13.17-83.39-19.76-125.09C10.16,189.78,5.16,157.88.16,125.97c-.68-4.36.8-7.06,5.21-7.83,7.79-1.37,15.68-2.23,24.12-3.38,0-.41,0-1.64,0-2.86,0-15.01,0-30.02,0-45.03,0-5.26.95-6.54,6.02-8.24,9.72-3.26,19.44-6.52,29.38-9.85,0-3.96-.04-7.88,0-11.79.07-6.14,3.46-8.64,9.26-6.75,8.53,2.77,17.04,5.63,25.9,8.57.1-1.26.24-2.23.25-3.2.02-5.66.01-11.32.01-16.97,0-3.37,1.45-5.79,4.72-6.88,11.37-3.79,22.73-7.63,34.15-11.29,4.83-1.55,8.07.89,8.5,6.01q.58,7.06,7.29,9.28c7,2.32,14,4.66,21,6.98,6.43,2.14,7.23,3.22,7.24,9.9,0,1.94,0,3.88,0,6.25,8.4-2.78,16.36-5.42,24.33-8.06.88-.29,1.73-.65,2.62-.89,4.86-1.32,8.31,1.09,8.46,6.15.16,5.19.2,10.4-.03,15.58-.11,2.47.83,3.4,3.03,4.1,8.79,2.79,17.52,5.75,26.27,8.67,5.23,1.75,6.17,3.05,6.18,8.51,0,12.59,0,25.17,0,37.76,0,1.24,0,2.49,0,3.27,7.73,1.25,15.13,2.23,22.42,3.69,6.45,1.29,7.67,3.26,6.67,9.66-5.43,34.64-10.91,69.27-16.38,103.9-5.18,32.81-10.36,65.62-15.53,98.43-.97,6.15-1.65,12.37-3.01,18.43-.52,2.33-2.57,4.32-3.93,6.47H39.24ZM237.26,342.59c11.26-71.39,22.5-142.64,33.77-214.05-15.49-3.83-29.64-1.64-43.08,5.94-8.56,4.83-14.45,12.35-20.63,19.7-22.24,26.46-50.59,36.95-84.57,30.85-22.07-3.96-39.56-15.88-53.1-33.63-9.58-12.55-21.88-20.61-37.59-23.17-6.4-1.05-12.78-1.03-19.54.46,11.29,71.48,22.54,142.7,33.78,213.9h190.96ZM135.59,14.08c-6.78,2.25-13.16,4.54-19.65,6.45-2.91.86-3.86,2.16-3.86,5.26.11,46.73.08,93.46.08,140.19,0,.81-.15,1.66.06,2.41.19.67.65,1.58,1.22,1.79,7.12,2.65,14.43,4.4,22.15,4.42V14.08ZM147.92,175.28c7.16-2.11,13.81-4.12,20.49-6.03,2.38-.68,3.04-2.08,3.03-4.53-.09-26.08-.06-52.15-.06-78.23,0-16.61-.04-33.23.05-49.84.01-2.19-.58-3.31-2.78-3.92-3.77-1.05-7.43-2.46-11.15-3.68-3.1-1.02-6.21-1.99-9.57-3.06v149.3ZM76.93,43.59c-.11.79-.22,1.23-.22,1.67,0,31.39-.02,62.78.03,94.17,0,1.05.39,2.33,1.06,3.11,3.73,4.39,7.38,8.88,11.48,12.91,3.12,3.06,6.88,5.48,11.03,8.7v-5.2c0-27.35,0-54.7,0-82.06,0-7.62.05-15.23-.06-22.85-.01-1.03-.6-2.72-1.32-2.98-7.24-2.61-14.56-4.99-22.01-7.48ZM206.85,43.52c-6.97,2.32-13.56,4.69-20.27,6.67-2.72.8-3.45,2.04-3.44,4.8.11,34.03.07,68.05.08,102.08,0,1.09.1,2.18.18,3.71,1.22-.87,2.16-1.33,2.83-2.05,6.13-6.54,12.33-13.03,18.23-19.78,1.35-1.55,2.28-4.03,2.29-6.09.15-28.49.1-56.98.1-85.47,0-1.14,0-2.29,0-3.87ZM64.72,61.33c-6.94,2.32-13.64,4.71-20.45,6.75-2.52.75-3.05,2.01-3.03,4.4.11,12.58.04,25.16.06,37.73,0,2.53-.7,5.59.46,7.42,1.03,1.62,4.22,1.86,6.44,2.74.86.34,1.72.68,2.53,1.12,4.62,2.48,9.23,4.99,13.99,7.57V61.33ZM218.74,125.04c7.41-2.81,14.7-5.52,21.91-8.4.75-.3,1.53-1.64,1.53-2.51.1-12.34.12-24.68-.03-37.01-.01-.95-1.2-2.35-2.15-2.73-4.07-1.58-8.26-2.87-12.41-4.24-2.87-.95-5.75-1.85-8.85-2.85v57.74Z"/><path class="cls-1" d="M39.37,190.01c4.08-.67,7.67-1.26,11.65-1.91,2.63,15.78,5.22,31.28,7.88,47.21-3.92.66-7.6,1.27-11.65,1.95-2.64-15.81-5.22-31.31-7.88-47.24Z"/><path class="cls-1" d="M37.39,178.13c-.67-4.21-1.25-7.81-1.87-11.75,3.95-.66,7.62-1.26,11.56-1.92.68,4.08,1.3,7.77,1.96,11.75-3.96.65-7.64,1.26-11.65,1.92Z"/></svg>