<?xml version="1.0" encoding="UTF-8"?><svg id="Capa_1" xmlns="http://www.w3.org/2000/svg" viewBox="0 0 283.46 313.81"><defs><style>.cls-1{fill:#fff;stroke-width:0px;}</style></defs><path class="cls-1" d="M167.56,0c5.36.62,10.73,1.1,16.06,1.88,33.58,4.89,62.86,18.41,86.33,43.4,6.3,6.71,11.27,14.16,12.92,23.52,2.03,11.53-1.45,21.62-7.83,30.89-2.76,4.02-5.93,7.84-9.37,11.29-63.42,63.56-126.9,127.06-190.39,190.55-2.67,2.67-5.45,5.24-8.35,7.66-7.53,6.27-15.72,6.2-22.95-.4-11.15-10.18-19.43-22.55-26.35-35.84-8.56-16.43-14.25-33.81-16.6-52.22-1.7-13.32-.62-26.5,2.56-39.51.56-2.31.28-4.15-.81-6.33-4.18-8.39-3.86-16.88,2.15-24.12,3.98-4.79,5.32-9.79,5.36-15.7.03-5.18.3-10.42,1.14-15.52.44-2.68,2.38-5.1,3.55-7.68.56-1.23.86-2.58,1.32-3.86,7.95-21.99,18.38-42.6,34.77-59.57,16-16.56,33.78-30.82,55.51-39.43,12.05-4.78,24.54-7.54,37.45-8.47C145.16.47,146.24.19,147.34,0c6.74,0,13.48,0,20.23,0ZM256.7,57.45c4.72,5.07,6.6,9.79,6.63,16.29.07,14.18-13.42,24.98-27.26,21.96-6.47-1.41-11.19-5.69-16.26-9.43-15.83-11.68-33.64-18.26-53.16-20.01-17.96-1.61-35.47,1.09-52.43,6.97-47.42,16.44-79.32,48.74-96.59,95.63-5.7,15.49-8.59,31.56-6.72,48.11,3.06,27.09,13.33,51.38,29.71,73.08,3.12,4.13,6.78,7.91,10.54,11.49,3.04,2.89,5.44,2.85,8.74.21,3.18-2.54,6.19-5.33,9.07-8.21,63.13-63.12,126.23-126.27,189.32-189.43,2.38-2.38,4.65-4.89,6.69-7.56,11.74-15.34,11.22-29.32-1.72-43.57-12.25-13.51-26.86-23.77-43.62-30.93-22.61-9.66-46.33-12.64-70.69-11.66-20.83.84-40.15,6.57-57.8,17.79-13.29,8.44-24.88,18.86-35.58,30.31-3.2,3.42-5.83,7.38-8.72,11.09,5.26-3.34,10.97-3.78,16.7-3.89,4.77-.09,8.23-2.14,10.41-6.29,1.14-2.16,2.09-4.42,2.98-6.69,4.25-10.87,14.85-16.95,27.37-11.53,8.7,3.77,14.61,1.66,19.87-6.15,5.82-8.63,16.97-10.43,25.18-4.07,1.85,1.43,3.63,3.02,5.65,4.17,6.61,3.76,13.41,3.39,20.35.74,3.02-1.15,6.18-2.34,9.36-2.62,7.15-.65,12.91,2.36,16.33,8.63,3.22,5.9,7.99,8.4,14.41,8.55,3.06.07,6.12.27,9.18.45,10.22.61,17.54,7.77,18.21,17.97.37,5.49,3.75,8.96,7.58,12.53,4.34-6.22,3.35-11.79-.91-17.26,2.41-2.24,4.72-4.39,7.15-6.65ZM20.54,137.21l.48.24c1.25-2.06,2.49-4.13,3.77-6.17,6.79-10.87,14.57-20.98,23.86-29.81,27.55-26.18,60.11-41.69,98.1-45.23,21.74-2.03,42.61,1.59,62,11.66,8.27,4.29,15.74,10.13,23.66,15.13,2.18,1.37,4.66,2.26,7.01,3.36.24-.32.49-.65.73-.97-4.96-5.1-7.15-11.23-7.8-18.17-.32-3.4-2.98-5.53-6.49-5.99-2.62-.34-5.28-.53-7.92-.56-10.87-.14-20.08-3.27-25.48-13.65-1.75-3.36-4.81-4.26-8.34-3.54-1.58.33-3.1.97-4.62,1.57-12.61,5-24.31,3.89-34.92-5.06-5.12-4.33-9.06-3.49-12.97,2-1.96,2.76-4.31,5.6-7.14,7.31-8,4.85-16.45,4.46-24.95.94-5.62-2.33-9.97-.57-12.6,4.91-1.06,2.2-1.82,4.54-2.85,6.76-2.15,4.62-5.14,8.54-9.64,11.17-4.42,2.59-9.32,2.73-14.23,2.9-6.26.22-8.77,2.49-9.17,8.63-.35,5.37-2.25,10.05-5.35,14.4-4.51,6.31-10.44,10.81-17.21,14.39-4.62,2.45-7.64,6.16-7.87,11.57-.17,4.07-.03,8.15-.03,12.23ZM40.57,79.04c-3.39,6.81-6.79,13.63-10.18,20.44,7.06-4.95,11.58-11.19,10.18-20.44Z"/><path class="cls-1" d="M156.87,71.39v9.19c-54.02,3.67-90.11,33.78-116.79,78.46-1.45-.69-2.89-1.37-4.32-2.07-1.45-.71-2.88-1.46-4.67-2.36,1.64-2.8,3.07-5.49,4.72-8.02,15.17-23.27,33.29-43.63,57.55-57.85,18.64-10.93,38.65-17.27,60.37-17.73.81-.02,1.63,0,2.44.05.18,0,.35.16.7.33Z"/><path class="cls-1" d="M246.57,46.93c-2.53,2.37-4.88,4.58-7.34,6.89-17.45-16.33-39.09-24.12-62.52-28.68.42-3.25.82-6.43,1.28-10,25.78,4.71,49.29,13.43,68.59,31.79Z"/><path class="cls-1" d="M166.92,101.36v9.61c-7.4,2.57-10.51,6.42-9.74,12.01.63,4.59,4.63,8.22,9.44,8.59,5.31.4,9.04-2.97,10.96-10.01h9.31c1.34,8.83-7.11,18.72-16.89,19.92-11.9,1.46-21.67-6.54-22.98-18.82-1.11-10.36,8.13-20.41,19.91-21.3Z"/><path class="cls-1" d="M56.1,152.04h9.67c.21.76.4,1.43.58,2.12,1.28,4.96,5.27,7.93,10.35,7.71,4.56-.2,8.58-3.78,9.29-8.29.75-4.71-1.96-9.82-6.7-11.05-3.11-.8-3.49-2.34-3.3-4.91.13-1.81.03-3.64.03-5.42,8.77-1.64,18.8,7.58,20.1,18.22,1.32,10.8-7.64,20.82-19.35,21.64-10.75.76-20.67-8.68-20.68-20.02Z"/><path class="cls-1" d="M71.02,258.13c0,8.33-6.9,15.23-15.2,15.18-8.27-.05-15.19-7.07-15.1-15.33.09-8.16,6.91-14.95,15.09-15.03,8.3-.08,15.21,6.82,15.21,15.17ZM55.82,263.06c2.84.03,5.11-2.21,5.07-5.01-.04-2.61-2.29-4.86-4.91-4.91-2.81-.05-5.04,2.2-5.01,5.06.03,2.74,2.12,4.82,4.85,4.86Z"/><path class="cls-1" d="M146.87,187.27c0,8.43-6.72,15.13-15.17,15.1-8.41-.03-15.1-6.81-15.04-15.24.06-8.26,6.75-14.92,15.02-14.96,8.42-.04,15.18,6.68,15.18,15.1ZM136.8,187.15c-.08-2.68-2.57-5-5.22-4.88-2.73.13-4.93,2.57-4.77,5.28.16,2.6,2.47,4.79,5.02,4.76,2.65-.04,5.05-2.53,4.97-5.16Z"/><path class="cls-1" d="M221.39,92.31c-1.12,1.2-1.83,1.91-2.49,2.66-1.42,1.59-2.83,3.2-4.28,4.84-14.37-10.69-29.58-17.84-47.36-18.88v-10.16c20.22,1.64,37.6,9.8,54.13,21.55Z"/><path class="cls-1" d="M101.22,238.13v9.72c-7.4-.21-12.91-3.6-16.79-9.52-4.51-6.88-4.54-14.1-.07-21.02,3.86-5.97,9.39-9.34,16.84-9.68v9.72c-6.88,2.06-10.14,5.58-9.94,10.7.19,4.99,3.55,8.42,9.97,10.07Z"/><path class="cls-1" d="M45.63,202.36c-5.64-.06-9.99-4.57-9.9-10.25.09-5.44,4.63-9.91,10.05-9.91,5.49,0,10.18,4.73,10.12,10.21-.05,5.61-4.6,10.01-10.28,9.95Z"/></svg>